<?xml version="1.0" encoding="UTF-8"?>
<svg id="Layer_1" data-name="Layer 1" xmlns="http://www.w3.org/2000/svg" xmlns:xlink="http://www.w3.org/1999/xlink" viewBox="0 0 68.4 67.68">
  <defs>
    <style>
      .cls-1 {
        fill: url(#linear-gradient-2);
      }

      .cls-2 {
        font-size: 10.93px;
      }

      .cls-3 {
        fill: #fff;
        filter: url(#drop-shadow-2);
        font-family: Montserrat-SemiBold, Montserrat;
        font-weight: 600;
      }

      .cls-4 {
        fill: url(#radial-gradient);
      }

      .cls-5 {
        fill: url(#radial-gradient-2);
      }

      .cls-6 {
        fill: url(#linear-gradient);
        filter: url(#drop-shadow-1);
      }

      .cls-7 {
        font-size: 20px;
      }

      .cls-8 {
        letter-spacing: -.04em;
      }

      .cls-9 {
        fill: none;
        opacity: .66;
        stroke: url(#radial-gradient-3);
        stroke-linecap: round;
        stroke-linejoin: round;
        stroke-width: 1.5px;
      }

      .cls-10 {
        font-size: 7.29px;
      }
    </style>
    <radialGradient id="radial-gradient" cx="33.67" cy="18.67" fx="33.67" fy="18.67" r="15.86" gradientTransform="translate(0 -18.67) scale(1 2)" gradientUnits="userSpaceOnUse">
      <stop offset="0" stop-color="#fff"/>
      <stop offset="1" stop-color="#231f20"/>
    </radialGradient>
    <linearGradient id="linear-gradient" x1="33.67" y1="37.29" x2="33.67" y2=".05" gradientUnits="userSpaceOnUse">
      <stop offset="0" stop-color="#00b9f1" stop-opacity=".81"/>
      <stop offset="0" stop-color="#00b3f0" stop-opacity=".81"/>
      <stop offset=".73" stop-color="#00b5f1" stop-opacity=".79"/>
      <stop offset="1" stop-color="#d9f1fd" stop-opacity=".37"/>
    </linearGradient>
    <filter id="drop-shadow-1" x="17.04" y="0" width="31.2" height="43.44" filterUnits="userSpaceOnUse">
      <feOffset dx="-1" dy="3"/>
      <feGaussianBlur result="blur" stdDeviation="1"/>
      <feFlood flood-color="#231f20" flood-opacity=".3"/>
      <feComposite in2="blur" operator="in"/>
      <feComposite in="SourceGraphic"/>
    </filter>
    <radialGradient id="radial-gradient-2" cx="33.57" cy="19.91" fx="16.83" fy="19.91" r="17.06" gradientUnits="userSpaceOnUse">
      <stop offset="0" stop-color="#fff"/>
      <stop offset=".02" stop-color="#fff"/>
      <stop offset=".04" stop-color="#f2f3f3"/>
      <stop offset="1" stop-color="#231f20"/>
    </radialGradient>
    <linearGradient id="linear-gradient-2" x1="33.67" y1="28.71" x2="33.67" y2="6.54" gradientUnits="userSpaceOnUse">
      <stop offset="0" stop-color="#00bbf2" stop-opacity=".74"/>
      <stop offset=".69" stop-color="#00b9f1" stop-opacity=".81"/>
      <stop offset="1" stop-color="#00aeef" stop-opacity=".37"/>
    </linearGradient>
    <radialGradient id="radial-gradient-3" cx="33.67" cy="29" fx="33.67" fy="29" r="9.36" gradientTransform="translate(0 1.48) scale(1 .96)" gradientUnits="userSpaceOnUse">
      <stop offset="0" stop-color="#eeefef"/>
      <stop offset=".01" stop-color="#fff"/>
      <stop offset=".01" stop-color="#f0f0f1"/>
      <stop offset=".06" stop-color="#f0f0f1"/>
      <stop offset=".85" stop-color="#231f20"/>
    </radialGradient>
    <filter id="drop-shadow-2" filterUnits="userSpaceOnUse">
      <feOffset dx="-1" dy="1"/>
      <feGaussianBlur result="blur-2" stdDeviation="1"/>
      <feFlood flood-color="#000" flood-opacity=".5"/>
      <feComposite in2="blur-2" operator="in"/>
      <feComposite in="SourceGraphic"/>
    </filter>
  </defs>
  <path class="cls-4" d="M44.66,18.83c-.1-.18-.2-.35-.31-.53L33.9.18c-.1-.18-.35-.18-.45,0l-10.46,18.12c-.11.18-.21.35-.31.53-1.02,1.87-1.56,4.03-1.5,6.31.18,6.46,5.45,11.84,11.91,12.14,7.17.33,13.09-5.39,13.09-12.49,0-2.15-.54-4.18-1.51-5.96Z"/>
  <path class="cls-6" d="M44.66,18.83c-.1-.18-.2-.35-.31-.53L33.9.18c-.1-.18-.35-.18-.45,0l-10.46,18.12c-.11.18-.21.35-.31.53-1.02,1.87-1.56,4.03-1.5,6.31.18,6.46,5.45,11.84,11.91,12.14,7.17.33,13.09-5.39,13.09-12.49,0-2.15-.54-4.18-1.51-5.96Z"/>
  <path class="cls-5" d="M42.03,17.35c-.07-.13-.15-.26-.23-.38l-7.96-13.2c-.08-.13-.27-.13-.35,0l-7.96,13.2c-.08.13-.16.26-.23.38-.77,1.36-1.19,2.93-1.14,4.6.13,4.71,4.15,8.63,9.06,8.84,5.46.24,9.95-3.92,9.95-9.1,0-1.57-.41-3.05-1.15-4.34Z"/>
  <path class="cls-1" d="M40.15,17.72c-.06-.1-.12-.21-.18-.31l-6.17-10.79c-.06-.1-.21-.1-.27,0l-6.17,10.79c-.06.1-.12.21-.18.31-.6,1.12-.92,2.4-.89,3.76.1,3.85,3.22,7.05,7.02,7.23,4.23.19,7.72-3.21,7.72-7.44,0-1.28-.32-2.49-.89-3.55Z"/>
  <path class="cls-9" d="M22.73,24.07c0,5.8,4.9,10.51,10.94,10.51s10.94-4.71,10.94-10.51"/>
  <text class="cls-3" transform="translate(12.19 51.15)"><tspan class="cls-7"><tspan x="0" y="0">pe</tspan><tspan class="cls-8" x="26.16" y="0">r</tspan><tspan x="33.7" y="0">a</tspan></tspan><tspan class="cls-2" x="4.07" y="9.57">-</tspan><tspan class="cls-10" x="8.27" y="9.57">HIZMET</tspan><tspan class="cls-2" x="37.56" y="9.57">-</tspan></text>
</svg>